<svg width="25" height="24" viewBox="0 0 25 24" fill="none" xmlns="http://www.w3.org/2000/svg">
<g clip-path="url(#clip0_3_5795)">
<g clip-path="url(#clip1_3_5795)">
<path d="M17.7098 2.97022C16.7172 2.97206 15.7453 3.25475 14.9065 3.78562C14.0677 4.31649 13.3963 5.07387 12.9698 5.97022C12.4604 4.88786 11.5965 4.01194 10.5214 3.48748C9.44619 2.96303 8.22414 2.82149 7.05755 3.08631C5.89095 3.35112 4.84978 4.00641 4.10641 4.94368C3.36304 5.88094 2.96206 7.04398 2.96984 8.24022C2.96984 15.6002 12.9698 20.9202 12.9698 20.9202C12.9698 20.9202 22.9698 15.6002 22.9698 8.24022C22.9698 6.84426 22.416 5.50533 21.4298 4.5173C20.4436 3.52927 19.1058 2.97287 17.7098 2.97022Z" fill="#FF4D37"/>
</g>
</g>
<defs>
<clipPath id="clip0_3_5795">
<rect width="24" height="24" fill="white" transform="translate(0.969727)"/>
</clipPath>
<clipPath id="clip1_3_5795">
<rect width="24" height="24" fill="white" transform="translate(0.969727)"/>
</clipPath>
</defs>
</svg>
