<svg width="24" height="24" viewBox="0 0 24 24" fill="none" xmlns="http://www.w3.org/2000/svg">
<g clip-path="url(#clip0_48_105)">
<path d="M19.9493 22.32C21.0096 22.32 21.8693 21.4604 21.8693 20.4C21.8693 19.3396 21.0096 18.48 19.9493 18.48C18.8889 18.48 18.0293 19.3396 18.0293 20.4C18.0293 21.4604 18.8889 22.32 19.9493 22.32Z" fill="#FED014"/>
<path d="M14.7552 21.9745C14.5396 21.9825 14.3278 21.9177 14.1536 21.7906C13.9795 21.6634 13.8532 21.4813 13.7952 21.2737L12.8352 17.7217L11.1072 15.7249C11.02 15.6304 10.9526 15.5194 10.9091 15.3985C10.8656 15.2774 10.8469 15.149 10.854 15.0206C10.8611 14.8923 10.8939 14.7666 10.9506 14.6512C11.0071 14.5357 11.0863 14.4329 11.1835 14.3486C11.2805 14.2643 11.3936 14.2005 11.5158 14.1608C11.6381 14.121 11.7672 14.1062 11.8952 14.1174C12.0233 14.1284 12.1479 14.1651 12.2615 14.2252C12.3751 14.2854 12.4755 14.3676 12.5568 14.4673L14.4768 16.6273C14.5677 16.7364 14.6332 16.8643 14.6688 17.0017L15.6768 20.8033C15.7103 20.925 15.7195 21.052 15.7038 21.1773C15.6882 21.3025 15.648 21.4234 15.5856 21.5331C15.5232 21.6427 15.4397 21.739 15.3401 21.8164C15.2404 21.8938 15.1265 21.9508 15.0048 21.9841C14.9216 21.9955 14.8371 21.9922 14.7552 21.9745Z" fill="#FFC645"/>
<path d="M8.69779 19.1616C8.56195 19.161 8.4278 19.1316 8.30419 19.0752L4.10899 17.2032C3.87603 17.0989 3.69407 16.9062 3.60315 16.6676C3.51224 16.4291 3.5198 16.1642 3.62419 15.9312C3.72858 15.6983 3.92123 15.5163 4.15979 15.4254C4.39834 15.3345 4.66323 15.3421 4.89619 15.4464L8.17939 16.9632L8.85139 15.3216C8.88272 15.1883 8.94224 15.0631 9.02597 14.9545C9.1097 14.846 9.21569 14.7568 9.33682 14.6926C9.45795 14.6285 9.59141 14.5911 9.7282 14.5828C9.865 14.5745 10.002 14.5957 10.13 14.6448C10.2579 14.6939 10.3739 14.7698 10.47 14.8674C10.5662 14.9652 10.6403 15.0823 10.6874 15.2109C10.7346 15.3397 10.7536 15.4769 10.7432 15.6136C10.7328 15.7503 10.6934 15.8831 10.6274 16.0032L9.58099 18.5664C9.53271 18.6853 9.46112 18.7932 9.37043 18.8839C9.27974 18.9746 9.17181 19.0462 9.05299 19.0944C8.93882 19.1352 8.81897 19.158 8.69779 19.1616Z" fill="#FFC645"/>
<path d="M13.8816 11.4435C13.7623 11.4445 13.6442 11.4201 13.535 11.3721C13.4258 11.3242 13.328 11.2535 13.248 11.1651L10.6944 8.43865C10.6162 8.35516 10.5553 8.25698 10.5154 8.14978C10.4754 8.04259 10.4571 7.92853 10.4616 7.81421C10.466 7.69991 10.4932 7.58762 10.5414 7.48387C10.5896 7.38012 10.6579 7.28698 10.7424 7.20985C10.8219 7.12887 10.9168 7.06454 11.0215 7.02063C11.1261 6.97672 11.2385 6.9541 11.352 6.9541C11.4655 6.9541 11.5779 6.97672 11.6825 7.02063C11.7872 7.06454 11.882 7.12887 11.9616 7.20985L13.9584 9.35065L16.608 7.20985C16.6974 7.138 16.8003 7.08486 16.9106 7.05362C17.0209 7.02239 17.1364 7.01367 17.2502 7.028C17.3639 7.04234 17.4736 7.07942 17.5728 7.13705C17.672 7.19468 17.7585 7.27168 17.8272 7.36345C17.8988 7.45215 17.9522 7.55415 17.9843 7.66358C18.0163 7.77301 18.0264 7.8877 18.0139 8.00104C18.0014 8.11438 17.9666 8.22411 17.9115 8.32394C17.8564 8.42376 17.7821 8.51168 17.6928 8.58265L14.4192 11.2323C14.268 11.3597 14.0791 11.4339 13.8816 11.4435Z" fill="#FFC645"/>
<path d="M8.44757 14.1504L7.84277 16.0032L10.7612 17.3664L11.7404 14.8416L8.44757 14.1504Z" fill="#222836"/>
<path d="M8.73573 14.832C8.73573 14.832 7.98693 14.1504 8.44773 12.3936L12.403 12.96L12.6622 14.016L13.8814 15.2928L11.4334 17.2128L8.73573 14.832Z" fill="#2A3F4D"/>
<path d="M14.0735 8.64942L12.5087 10.5694L11.0879 8.81262L12.1631 7.15182C12.1631 7.15182 12.6239 7.04622 14.0735 8.64942Z" fill="#2A3F4D"/>
<path d="M11.962 6.53775C13.0223 6.53775 13.882 5.67814 13.882 4.61775C13.882 3.55737 13.0223 2.69775 11.962 2.69775C10.9016 2.69775 10.042 3.55737 10.042 4.61775C10.042 5.67814 10.9016 6.53775 11.962 6.53775Z" fill="#FFC645"/>
<path d="M12.9122 12.768L12.8546 11.5584V11.5008C12.9314 9.34078 12.9314 8.01598 12.3362 7.05598C12.2532 6.93339 12.1315 6.84214 11.9906 6.79678L10.7426 6.34558C10.1474 6.23998 9.15859 7.18078 9.05299 7.76638C8.41778 9.20063 7.69647 10.5952 6.89299 11.9424C6.84644 12.0237 6.81693 12.1138 6.80625 12.2069C6.79558 12.3 6.80397 12.3944 6.83091 12.4842C6.85785 12.574 6.90278 12.6574 6.96296 12.7292C7.02314 12.8011 7.09732 12.8601 7.18099 12.9024C7.87219 13.2096 9.32179 13.5648 12.269 13.4592C12.4455 13.4517 12.612 13.3749 12.7324 13.2456C12.8528 13.1162 12.9174 12.9447 12.9122 12.768Z" fill="#FF4D37"/>
<path d="M10.301 12.7201C10.1219 12.7175 9.94776 12.6605 9.80184 12.5569L6.92181 10.5601C6.80883 10.4791 6.71678 10.3726 6.65327 10.249C6.58977 10.1255 6.55664 9.98853 6.55664 9.84962C6.55664 9.7107 6.58977 9.57378 6.65327 9.45024C6.71678 9.32669 6.80883 9.22006 6.92181 9.13922L9.80184 7.13282C9.98962 7.03739 10.2057 7.01384 10.4096 7.06662C10.6136 7.11938 10.7912 7.24482 10.9091 7.41935C11.0271 7.59388 11.0772 7.80547 11.05 8.01435C11.0229 8.22322 10.9204 8.415 10.7618 8.55362L8.94741 9.84962L10.7906 11.1457C10.9418 11.2503 11.0557 11.4005 11.1157 11.5745C11.1756 11.7484 11.1785 11.9369 11.1239 12.1126C11.0692 12.2882 10.96 12.4418 10.812 12.5511C10.664 12.6603 10.485 12.7196 10.301 12.7201Z" fill="#FFC645"/>
<path d="M16.1192 21.0142H13.9112C13.5082 21.0142 13.1816 21.3408 13.1816 21.7438V22.099C13.1816 22.502 13.5082 22.8286 13.9112 22.8286H16.1192C16.5222 22.8286 16.8488 22.502 16.8488 22.099V21.7438C16.8488 21.3408 16.5222 21.0142 16.1192 21.0142Z" fill="#FF4D37"/>
<path d="M4.34674 18.0106L5.30495 16.0214C5.47982 15.6583 5.32729 15.2223 4.96427 15.0474L4.64425 14.8933C4.28123 14.7184 3.84518 14.8709 3.67031 15.2339L2.7121 17.2232C2.53724 17.5862 2.68976 18.0222 3.05278 18.1971L3.3728 18.3513C3.73582 18.5261 4.17188 18.3736 4.34674 18.0106Z" fill="#FF4D37"/>
<path d="M7.84277 8.16947L10.0412 9.84947L11.3276 8.68787C11.3276 8.68787 12.182 7.72786 11.3276 7.03666C11.06 6.85466 10.744 6.75732 10.4204 6.75732C10.0968 6.75732 9.78071 6.85466 9.51317 7.03666C8.9316 7.37637 8.37354 7.75483 7.84277 8.16947Z" fill="#2A3F4D"/>
<path d="M9.84962 4.15669C9.84962 4.15669 7.68 3.59989 6.8448 5.22229C6.0096 6.84469 4.9248 6.72949 4.9248 6.72949C5.39795 6.93929 5.91132 7.04285 6.4288 7.0329C6.94627 7.02295 7.45528 6.89972 7.92 6.67189C9.168 5.84629 8.88 5.04949 9.84002 4.48309L9.84962 4.15669Z" fill="#2A3F4D"/>
<path d="M9.9928 4.06055H9.8584V4.52135H9.9928V4.06055Z" fill="#FF4D37"/>
<path d="M10.0421 3.65767C10.0421 3.65767 9.83086 5.28967 10.5413 5.90407L11.3285 5.62567C11.3285 5.62567 10.6949 4.99207 10.9637 4.61767C11.2325 4.24327 11.5493 4.78087 11.5493 4.78087L12.1157 3.96487C12.1861 3.84371 12.2798 3.73765 12.3913 3.65275C12.5028 3.56785 12.63 3.5058 12.7656 3.47012C12.9011 3.43445 13.0423 3.42588 13.1813 3.44488C13.3201 3.46388 13.4539 3.5101 13.5749 3.58087C13.5749 3.58087 13.5749 2.40007 11.9621 2.40007C11.5449 2.34864 11.1231 2.44679 10.7716 2.67705C10.42 2.90731 10.1616 3.25478 10.0421 3.65767Z" fill="#2A3F4D"/>
</g>
<defs>
<clipPath id="clip0_48_105">
<rect width="24" height="24" fill="white"/>
</clipPath>
</defs>
</svg>
