<svg width="24" height="24" viewBox="0 0 24 24" fill="none" xmlns="http://www.w3.org/2000/svg">
<g clip-path="url(#clip0_3_5207)">
<g clip-path="url(#clip1_3_5207)">
<path d="M11.9997 19.1998C10.5757 19.1998 9.18367 18.7775 7.99963 17.9864C6.8156 17.1952 5.89276 16.0708 5.34781 14.7551C4.80285 13.4395 4.66027 11.9918 4.93809 10.5951C5.2159 9.1985 5.90164 7.91558 6.90858 6.90864C7.91551 5.90171 9.19842 5.21597 10.5951 4.93815C11.9918 4.66034 13.4394 4.80293 14.755 5.34788C16.0707 5.89283 17.1952 6.81567 17.9863 7.99971C18.7774 9.18374 19.1997 10.5757 19.1997 11.9998C19.1997 13.9093 18.4411 15.7407 17.0909 17.091C15.7407 18.4412 13.9093 19.1998 11.9997 19.1998ZM11.9997 5.75981C10.7656 5.75981 9.55914 6.12578 8.53298 6.81144C7.50682 7.4971 6.70702 8.47165 6.23473 9.61187C5.76244 10.7521 5.63887 12.0067 5.87964 13.2172C6.12042 14.4276 6.71472 15.5395 7.5874 16.4122C8.46008 17.2848 9.57193 17.8791 10.7824 18.1199C11.9928 18.3607 13.2474 18.2371 14.3877 17.7648C15.5279 17.2926 16.5024 16.4927 17.1881 15.4666C17.8738 14.4404 18.2397 13.234 18.2397 11.9998C18.2372 10.3456 17.579 8.75994 16.4093 7.59027C15.2396 6.42059 13.6539 5.76235 11.9997 5.75981ZM8.88934 13.7662C8.88934 14.5911 9.21705 15.3823 9.80037 15.9656C10.3837 16.5489 11.1748 16.8766 11.9997 16.8766C12.8247 16.8766 13.6158 16.5489 14.1991 15.9656C14.7825 15.3823 15.1101 14.5911 15.1101 13.7662H8.88934ZM11.9997 12.8062C11.5869 12.8062 11.2413 12.9022 11.2413 13.0078C11.2413 13.1134 11.5869 13.1998 11.9997 13.1998C12.4125 13.1998 12.7581 13.1134 12.7581 13.0078C12.7581 12.9022 12.4125 12.787 11.9997 12.787V12.8062ZM9.65733 9.60941C9.23494 9.60941 8.88934 10.2142 8.88934 10.963C8.88934 11.7118 9.23494 12.3262 9.65733 12.3262C10.0797 12.3262 10.4253 11.7214 10.4253 10.963C10.4253 10.2046 10.0797 9.59021 9.65733 9.59021V9.60941ZM14.3421 9.60941C13.9197 9.60941 13.5741 10.2142 13.5741 10.963C13.5741 11.7118 13.9197 12.3262 14.3421 12.3262C14.7645 12.3262 15.1101 11.7214 15.1101 10.963C15.1101 10.2046 14.7645 9.59021 14.3421 9.59021V9.60941ZM17.4525 18.7198C18.8148 18.2012 19.9873 17.2809 20.8146 16.0808C21.6419 14.8807 22.0849 13.4575 22.0849 11.9998C22.0849 10.5421 21.6419 9.11896 20.8146 7.91884C19.9873 6.71871 18.8148 5.79837 17.4525 5.27981C17.3933 5.25668 17.3301 5.24555 17.2666 5.24705C17.203 5.24856 17.1404 5.26267 17.0824 5.28857C17.0243 5.31447 16.972 5.35164 16.9284 5.39793C16.8848 5.44422 16.8509 5.4987 16.8285 5.55821C16.8056 5.61675 16.7945 5.6793 16.7962 5.74217C16.7978 5.80503 16.812 5.86693 16.8379 5.92422C16.864 5.9815 16.9011 6.03299 16.9473 6.07566C16.9935 6.11832 17.0478 6.15129 17.1069 6.17261C18.2862 6.62428 19.3006 7.4231 20.0163 8.46353C20.7319 9.50396 21.115 10.737 21.115 11.9998C21.115 13.2626 20.7319 14.4957 20.0163 15.5361C19.3006 16.5765 18.2862 17.3753 17.1069 17.827C17.0478 17.8483 16.9935 17.8813 16.9473 17.924C16.9011 17.9666 16.864 18.0181 16.8379 18.0754C16.812 18.1327 16.7978 18.1946 16.7962 18.2575C16.7945 18.3204 16.8056 18.3828 16.8285 18.4414C16.8647 18.5316 16.927 18.609 17.0074 18.6637C17.0877 18.7185 17.1826 18.748 17.2797 18.7486C17.3385 18.7483 17.3969 18.7386 17.4525 18.7198ZM7.19974 18.4414C7.22272 18.3828 7.23373 18.3204 7.23211 18.2575C7.23049 18.1946 7.21627 18.1327 7.19033 18.0754C7.16437 18.0181 7.1272 17.9666 7.08099 17.924C7.0348 17.8813 6.98051 17.8483 6.92134 17.827C5.7421 17.3753 4.72764 16.5765 4.012 15.5361C3.29636 14.4957 2.91324 13.2626 2.91324 11.9998C2.91324 10.737 3.29636 9.50396 4.012 8.46353C4.72764 7.4231 5.7421 6.62428 6.92134 6.17261C6.98051 6.15129 7.0348 6.11832 7.08099 6.07566C7.1272 6.03299 7.16437 5.9815 7.19033 5.92422C7.21627 5.86693 7.23049 5.80503 7.23211 5.74217C7.23373 5.6793 7.22272 5.61675 7.19974 5.55821C7.1774 5.4987 7.14346 5.44422 7.09989 5.39793C7.05632 5.35164 7.00399 5.31447 6.94594 5.28857C6.88789 5.26267 6.82527 5.24856 6.76171 5.24705C6.69817 5.24555 6.63496 5.25668 6.57574 5.27981C5.21347 5.79837 4.04096 6.71871 3.21367 7.91884C2.38637 9.11896 1.94336 10.5421 1.94336 11.9998C1.94336 13.4575 2.38637 14.8807 3.21367 16.0808C4.04096 17.2809 5.21347 18.2012 6.57574 18.7198C6.63298 18.7289 6.69131 18.7289 6.74854 18.7198C6.84254 18.7216 6.93507 18.6964 7.01509 18.6469C7.09509 18.5976 7.1592 18.5263 7.19974 18.4414Z" fill="black"/>
</g>
</g>
<defs>
<clipPath id="clip0_3_5207">
<rect width="24" height="24" fill="white"/>
</clipPath>
<clipPath id="clip1_3_5207">
<rect width="24" height="24" fill="white"/>
</clipPath>
</defs>
</svg>
