<svg width="25" height="24" viewBox="0 0 25 24" fill="none" xmlns="http://www.w3.org/2000/svg">
<g clip-path="url(#clip0_4_492)">
<g clip-path="url(#clip1_4_492)">
<path d="M21.8772 6.72021H19.4772C19.3499 6.72021 19.2278 6.77079 19.1377 6.86081C19.0477 6.95082 18.9972 7.07291 18.9972 7.20021C18.9972 7.32752 19.0477 7.44961 19.1377 7.53962C19.2278 7.62964 19.3499 7.68021 19.4772 7.68021H20.7156L18.0564 10.3394C17.194 9.63654 16.0952 9.29085 14.9857 9.37347C13.8764 9.45609 12.8408 9.96072 12.0921 10.7836C11.3434 11.6064 10.9386 12.6849 10.9608 13.7971C10.983 14.9094 11.4307 15.9709 12.2116 16.7632C12.9926 17.5554 14.0474 18.0183 15.1593 18.0565C16.2711 18.0947 17.3553 17.7054 18.1889 16.9686C19.0223 16.2319 19.5419 15.2036 19.6404 14.0956C19.739 12.9875 19.4091 11.8838 18.7188 11.0114L21.3972 8.35221V9.60021C21.3972 9.72752 21.4477 9.84961 21.5377 9.93962C21.6278 10.0296 21.7499 10.0802 21.8772 10.0802C22.0045 10.0802 22.1266 10.0296 22.2165 9.93962C22.3066 9.84961 22.3572 9.72752 22.3572 9.60021V7.20021C22.3572 7.07291 22.3066 6.95082 22.2165 6.86081C22.1266 6.77079 22.0045 6.72021 21.8772 6.72021ZM17.7108 16.109C17.2382 16.572 16.6394 16.8853 15.9895 17.0094C15.3396 17.1335 14.6676 17.063 14.0576 16.8066C13.4476 16.5503 12.9269 16.1197 12.5608 15.5686C12.1945 15.0175 11.9993 14.3706 11.9993 13.709C11.9993 13.0474 12.1945 12.4005 12.5608 11.8494C12.9269 11.2984 13.4476 10.8677 14.0576 10.6114C14.6676 10.3551 15.3396 10.2845 15.9895 10.4086C16.6394 10.5328 17.2382 10.846 17.7108 11.309C18.0312 11.6212 18.2859 11.9944 18.4599 12.4066C18.6338 12.8188 18.7234 13.2617 18.7234 13.709C18.7234 14.1564 18.6338 14.5992 18.4599 15.0114C18.2859 15.4237 18.0312 15.7968 17.7108 16.109Z" fill="#222836"/>
<path d="M11.01 9.12006C11.0141 8.28522 10.7763 7.46708 10.3252 6.76459C9.87411 6.06211 9.22914 5.50538 8.4683 5.16175C7.70745 4.81812 6.86334 4.70229 6.03806 4.8283C5.21278 4.95432 4.44169 5.31676 3.81807 5.87178C3.19444 6.42682 2.74499 7.15065 2.52409 7.95574C2.30319 8.76083 2.3203 9.61268 2.57335 10.4082C2.8264 11.2038 3.30454 11.909 3.94996 12.4385C4.59537 12.9681 5.38039 13.2993 6.21007 13.392C6.21007 13.392 6.21007 13.392 6.21007 13.44V14.88H4.29007C4.16276 14.88 4.04067 14.9306 3.95065 15.0207C3.86063 15.1107 3.81007 15.2327 3.81007 15.36C3.81007 15.4873 3.86063 15.6094 3.95065 15.6995C4.04067 15.7895 4.16276 15.84 4.29007 15.84H6.21007V18.24C6.21007 18.3673 6.26063 18.4894 6.35065 18.5795C6.44067 18.6695 6.56276 18.72 6.69007 18.72C6.81737 18.72 6.93946 18.6695 7.02948 18.5795C7.1195 18.4894 7.17007 18.3673 7.17007 18.24V15.84H9.09007C9.21737 15.84 9.33946 15.7895 9.42948 15.6995C9.5195 15.6094 9.57007 15.4873 9.57007 15.36C9.57007 15.2327 9.5195 15.1107 9.42948 15.0207C9.33946 14.9306 9.21737 14.88 9.09007 14.88H7.17007V13.44C7.17007 13.44 7.17007 13.44 7.17007 13.392C8.2233 13.2764 9.19705 12.7769 9.90537 11.9889C10.6137 11.2009 11.0069 10.1796 11.01 9.12006ZM6.69007 12.48C6.02552 12.48 5.3759 12.283 4.82335 11.9138C4.2708 11.5446 3.84015 11.0199 3.58583 10.4058C3.33152 9.79192 3.26498 9.11633 3.39463 8.46455C3.52428 7.81278 3.84428 7.21409 4.31418 6.74418C4.7841 6.27427 5.38279 5.95427 6.03456 5.82462C6.68634 5.69497 7.36193 5.76151 7.97588 6.01582C8.58984 6.27014 9.11461 6.70079 9.4838 7.25334C9.85301 7.80589 10.0501 8.45551 10.0501 9.12006C10.0501 10.0112 9.69607 10.8658 9.06594 11.4959C8.43582 12.1261 7.58119 12.48 6.69007 12.48Z" fill="#222836"/>
</g>
</g>
<defs>
<clipPath id="clip0_4_492">
<rect width="24" height="24" fill="white" transform="translate(0.450195)"/>
</clipPath>
<clipPath id="clip1_4_492">
<rect width="24" height="24" fill="white" transform="translate(0.450195)"/>
</clipPath>
</defs>
</svg>
