<svg width="24" height="24" viewBox="0 0 24 24" fill="none" xmlns="http://www.w3.org/2000/svg">
<g clip-path="url(#clip0_4_499)">
<g clip-path="url(#clip1_4_499)">
<path d="M17.8571 2.5H7.14286C5.95939 2.5 5 3.39543 5 4.5V19.5C5 20.6046 5.95939 21.5 7.14286 21.5H17.8571C19.0406 21.5 20 20.6046 20 19.5V4.5C20 3.39543 19.0406 2.5 17.8571 2.5Z" stroke="#222836" stroke-miterlimit="10"/>
<path d="M5 12H20" stroke="#222836" stroke-miterlimit="10"/>
<path d="M12.5 14.5C13.8807 14.5 15 13.3807 15 12C15 10.6193 13.8807 9.5 12.5 9.5C11.1193 9.5 10 10.6193 10 12C10 13.3807 11.1193 14.5 12.5 14.5Z" stroke="#222836" stroke-miterlimit="10"/>
<path d="M16 2.5H9V5.5H16V2.5Z" stroke="#222836" stroke-miterlimit="10"/>
<path d="M16 18.5H9V21.5H16V18.5Z" stroke="#222836" stroke-miterlimit="10"/>
</g>
</g>
<defs>
<clipPath id="clip0_4_499">
<rect width="24" height="24" fill="white"/>
</clipPath>
<clipPath id="clip1_4_499">
<rect width="24" height="24" fill="white"/>
</clipPath>
</defs>
</svg>
