<svg width="24" height="24" viewBox="0 0 24 24" fill="none" xmlns="http://www.w3.org/2000/svg">
<g clip-path="url(#clip0_48_81)">
<g clip-path="url(#clip1_48_81)">
<path d="M21.5 8.01009C21.1065 8.00741 20.728 8.16048 20.447 8.43588C20.166 8.71128 20.0053 9.08666 20 9.48009C20 9.66009 19.63 10.0101 18.5 10.0101C17.9725 10.0156 17.4509 9.89932 16.9757 9.67038C16.5005 9.44145 16.0845 9.10599 15.76 8.69009C15.4269 8.29405 14.9532 8.04257 14.4385 7.98849C13.9238 7.93441 13.4082 8.08195 13 8.40009L12.72 8.61009C10.2323 10.5601 7.22951 11.7417 4.08 12.0101C2.93 12.0101 1 12.4301 1 14.0101C1 15.9401 2.71 18.0101 7.5 18.0101H20.5C20.8317 18.0227 21.1624 17.9667 21.4715 17.8455C21.7805 17.7244 22.0612 17.5407 22.2959 17.3059C22.5306 17.0712 22.7143 16.7906 22.8355 16.4815C22.9566 16.1725 23.0126 15.8418 23 15.5101V13.5101V9.51009C23 9.11227 22.842 8.73073 22.5607 8.44943C22.2794 8.16813 21.8978 8.01009 21.5 8.01009ZM4.13 13.0101C7.4866 12.7392 10.6895 11.4873 13.34 9.41009L13.61 9.21009C13.7926 9.06819 14.0188 8.99397 14.25 9.00009C14.3901 8.99643 14.5293 9.02417 14.6574 9.08127C14.7854 9.13837 14.8991 9.22338 14.99 9.33009C15.4101 9.85713 15.9442 10.2821 16.5521 10.5731C17.16 10.864 17.826 11.0135 18.5 11.0101C21 11.0101 21 9.57009 21 9.51009C21 9.37748 21.0527 9.2503 21.1464 9.15654C21.2402 9.06277 21.3674 9.01009 21.5 9.01009C21.6326 9.01009 21.7598 9.06277 21.8536 9.15654C21.9473 9.2503 22 9.37748 22 9.51009V13.5101C22 13.9079 21.842 14.2894 21.5607 14.5707C21.2794 14.852 20.8978 15.0101 20.5 15.0101H6.5C3.22 15.0101 2 14.4001 2 14.0101C2 13.0601 4.06 13.0101 4.13 13.0101ZM20.5 17.0101H7.5C5.23 17.0101 3.56 16.4901 2.68 15.5901C3.92684 15.9112 5.21316 16.0527 6.5 16.0101H20.5C21.0427 16.0109 21.5703 15.8315 22 15.5001C22.0131 15.7009 21.9834 15.9022 21.9127 16.0907C21.8421 16.2792 21.7323 16.4505 21.5904 16.5933C21.4486 16.736 21.278 16.847 21.09 16.9189C20.902 16.9908 20.7009 17.0218 20.5 17.0101Z" fill="#222836"/>
</g>
</g>
<defs>
<clipPath id="clip0_48_81">
<rect width="24" height="24" fill="white"/>
</clipPath>
<clipPath id="clip1_48_81">
<rect width="24" height="24" fill="white"/>
</clipPath>
</defs>
</svg>
