<svg width="74" height="72" viewBox="0 0 74 72" fill="none" xmlns="http://www.w3.org/2000/svg">
<g clip-path="url(#clip0_4_595)">
<g clip-path="url(#clip1_4_595)">
<path d="M72.8799 36C72.8799 16.1177 56.7621 0 36.8799 0C16.9976 0 0.879883 16.1177 0.879883 36C0.879883 55.8823 16.9976 72 36.8799 72C56.7621 72 72.8799 55.8823 72.8799 36Z" fill="#F2F5F7"/>
<path d="M43.5466 31.3335V29.3335C43.543 27.7433 42.9098 26.2192 41.7853 25.0948C40.6609 23.9703 39.1368 23.337 37.5466 23.3335H36.2132C34.623 23.337 33.0989 23.9703 31.9745 25.0948C30.85 26.2192 30.2168 27.7433 30.2132 29.3335V31.3335C29.3292 31.3335 28.4813 31.6847 27.8562 32.3098C27.2311 32.9349 26.8799 33.7828 26.8799 34.6668V46.6668C26.8799 47.5509 27.2311 48.3987 27.8562 49.0239C28.4813 49.649 29.3292 50.0002 30.2132 50.0002H43.5466C44.4306 50.0002 45.2785 49.649 45.9036 49.0239C46.5287 48.3987 46.8799 47.5509 46.8799 46.6668V34.6668C46.8799 33.7828 46.5287 32.9349 45.9036 32.3098C45.2785 31.6847 44.4306 31.3335 43.5466 31.3335ZM31.5466 29.3335C31.5466 28.0958 32.0382 26.9089 32.9134 26.0337C33.7886 25.1585 34.9756 24.6668 36.2132 24.6668H37.5466C38.7842 24.6668 39.9712 25.1585 40.8464 26.0337C41.7216 26.9089 42.2132 28.0958 42.2132 29.3335V31.3335H31.5466V29.3335ZM45.5466 46.6668C45.5466 47.1973 45.3359 47.706 44.9608 48.0811C44.5857 48.4561 44.077 48.6668 43.5466 48.6668H30.2132C29.6828 48.6668 29.1741 48.4561 28.799 48.0811C28.4239 47.706 28.2132 47.1973 28.2132 46.6668V34.6668C28.2132 34.1364 28.4239 33.6277 28.799 33.2526C29.1741 32.8776 29.6828 32.6668 30.2132 32.6668H43.5466C44.077 32.6668 44.5857 32.8776 44.9608 33.2526C45.3359 33.6277 45.5466 34.1364 45.5466 34.6668V46.6668Z" fill="#C1CCD6"/>
<path d="M36.8797 36.6665C36.0531 36.6657 35.2556 36.972 34.6421 37.5261C34.0287 38.0801 33.643 38.8424 33.5599 39.6648C33.4768 40.4873 33.7023 41.3113 34.1926 41.9768C34.6828 42.6424 35.4029 43.102 36.213 43.2665V44.6665C36.213 44.8433 36.2833 45.0129 36.4083 45.1379C36.5333 45.2629 36.7029 45.3332 36.8797 45.3332C37.0565 45.3332 37.2261 45.2629 37.3511 45.1379C37.4761 45.0129 37.5464 44.8433 37.5464 44.6665V43.2665C38.3565 43.102 39.0765 42.6424 39.5668 41.9768C40.0571 41.3113 40.2826 40.4873 40.1995 39.6648C40.1164 38.8424 39.7307 38.0801 39.1172 37.5261C38.5038 36.972 37.7063 36.6657 36.8797 36.6665ZM36.8797 41.9998C36.4841 41.9998 36.0974 41.8825 35.7686 41.6628C35.4397 41.443 35.1833 41.1306 35.0319 40.7652C34.8806 40.3997 34.8409 39.9976 34.9181 39.6096C34.9953 39.2217 35.1858 38.8653 35.4655 38.5856C35.7452 38.3059 36.1015 38.1154 36.4895 38.0383C36.8775 37.9611 37.2796 38.0007 37.6451 38.1521C38.0105 38.3034 38.3229 38.5598 38.5426 38.8887C38.7624 39.2176 38.8797 39.6043 38.8797 39.9998C38.8797 40.5303 38.669 41.039 38.2939 41.414C37.9188 41.7891 37.4101 41.9998 36.8797 41.9998Z" fill="#C1CCD6"/>
</g>
</g>
<defs>
<clipPath id="clip0_4_595">
<rect width="73" height="72" fill="white" transform="translate(0.379883)"/>
</clipPath>
<clipPath id="clip1_4_595">
<rect width="73" height="72" fill="white" transform="translate(0.379883)"/>
</clipPath>
</defs>
</svg>
