<svg width="21" height="20" viewBox="0 0 21 20" fill="none" xmlns="http://www.w3.org/2000/svg">
<g clip-path="url(#clip0_3_5642)">
<g clip-path="url(#clip1_3_5642)">
<g clip-path="url(#clip2_3_5642)">
<path d="M10.7957 0.90918C5.28114 0.90918 0.80957 4.28547 0.80957 8.45999C0.80957 11.038 2.52941 13.3141 5.15355 14.6732L4.105 18.4486C4.105 18.4486 3.93301 18.8208 4.20485 18.988C4.28114 19.0543 4.3799 19.091 4.48225 19.091C4.58459 19.091 4.68335 19.0543 4.75964 18.988L9.55854 15.8975C9.97463 15.9353 10.3907 15.9622 10.8235 15.9622C16.338 15.9622 20.8096 12.5913 20.8096 8.41143C20.8096 4.23152 16.3103 0.90918 10.7957 0.90918Z" fill="#181602"/>
</g>
</g>
</g>
<defs>
<clipPath id="clip0_3_5642">
<rect width="20" height="20" fill="white" transform="translate(0.80957)"/>
</clipPath>
<clipPath id="clip1_3_5642">
<rect width="20" height="20" fill="white" transform="translate(0.80957)"/>
</clipPath>
<clipPath id="clip2_3_5642">
<rect width="20" height="20" fill="white" transform="translate(0.80957)"/>
</clipPath>
</defs>
</svg>
