<svg width="24" height="24" viewBox="0 0 24 24" fill="none" xmlns="http://www.w3.org/2000/svg">
<g clip-path="url(#clip0_3_5787)">
<g clip-path="url(#clip1_3_5787)">
<path d="M19.4978 13.3058C19.5564 14.3595 19.4 15.4141 19.0379 16.4054C18.6759 17.3967 18.116 18.3039 17.392 19.0718C16.6681 19.8397 15.7955 20.4522 14.8273 20.8721C13.859 21.2919 12.8155 21.5102 11.7602 21.5138C6.96021 21.5138 2.53461 18.1154 4.15701 12.9602C4.78228 11.119 5.17257 9.20632 5.31861 7.26739C5.31843 7.15606 5.35 7.04699 5.40959 6.95296C5.46919 6.85893 5.55436 6.78383 5.65511 6.73648C5.75588 6.68913 5.86803 6.67148 5.97846 6.68559C6.08889 6.69971 6.19301 6.74501 6.27861 6.81619C6.9671 7.34297 7.60941 7.92748 8.19861 8.56339C8.26273 8.63433 8.34326 8.68848 8.43314 8.72113C8.52303 8.75377 8.61954 8.76391 8.71424 8.75065C8.80894 8.7374 8.89895 8.70115 8.97642 8.64507C9.05388 8.589 9.11643 8.51481 9.15861 8.42899C9.7151 6.87219 9.96921 5.22348 9.90739 3.57139C9.90719 3.46006 9.93878 3.35099 9.99839 3.25696C10.058 3.16293 10.1432 3.08783 10.244 3.04048C10.3447 2.99313 10.4568 2.97548 10.5673 2.98959C10.6777 3.00371 10.7818 3.04901 10.8674 3.12019C12.5051 4.42894 13.6466 6.25796 14.1026 8.30419C14.1321 8.42989 14.2016 8.54261 14.3007 8.62534C14.3999 8.70807 14.5232 8.75632 14.6522 8.76283C14.7811 8.76933 14.9086 8.73372 15.0155 8.66138C15.1225 8.58904 15.203 8.48389 15.245 8.36179C15.4416 7.76463 15.5641 7.1456 15.6098 6.51859C15.6147 6.404 15.6525 6.29326 15.7187 6.19966C15.7851 6.10607 15.877 6.03362 15.9834 5.99104C16.0899 5.94844 16.2064 5.93752 16.3189 5.95958C16.4315 5.98164 16.5353 6.03574 16.6178 6.11539C17.5483 7.0648 18.2818 8.18887 18.7761 9.42291C19.2703 10.657 19.5156 11.9766 19.4978 13.3058Z" fill="#FF6B55"/>
<path d="M17.3385 15.4753C16.8873 18.9985 14.5449 21.5137 11.7417 21.5137C8.31447 21.5137 4.61847 18.1345 5.85687 14.7265C6.33308 13.3685 6.6551 11.9612 6.81687 10.5313C6.83312 10.4186 6.88132 10.313 6.95576 10.227C7.03021 10.1409 7.12777 10.0779 7.23688 10.0456C7.34599 10.0133 7.46209 10.0129 7.5714 10.0445C7.68072 10.0762 7.77868 10.1385 7.85367 10.2241C8.18209 10.6728 8.43502 11.1722 8.60247 11.7025C8.63526 11.8134 8.70018 11.9121 8.78902 11.9862C8.87786 12.0603 8.98663 12.1064 9.10164 12.1187C9.21665 12.1311 9.33273 12.109 9.43525 12.0554C9.53776 12.0018 9.62212 11.9191 9.67771 11.8177C10.2772 10.6869 10.7473 9.49217 11.0793 8.25608C11.1113 8.13841 11.1786 8.03341 11.2722 7.95525C11.3658 7.8771 11.4811 7.82957 11.6025 7.81909C11.724 7.80862 11.8458 7.83571 11.9514 7.89669C12.057 7.95768 12.1413 8.04962 12.1929 8.16008C12.8901 9.50454 13.3018 10.9786 13.4025 12.4897C13.4124 12.5961 13.4509 12.6979 13.5138 12.7843C13.5767 12.8708 13.6617 12.9387 13.7599 12.9809C13.8582 13.0232 13.9659 13.0383 14.072 13.0244C14.178 13.0106 14.2783 12.9685 14.3625 12.9025C15.099 12.3286 15.7101 11.6099 16.1577 10.7905C16.2126 10.6827 16.2997 10.5946 16.4067 10.5382C16.5139 10.482 16.6358 10.4602 16.7557 10.4759C16.8757 10.4918 16.9878 10.5443 17.0767 10.6265C17.1656 10.7085 17.2269 10.8161 17.2521 10.9345C17.5535 12.4306 17.5827 13.9688 17.3385 15.4753Z" fill="#FEB700"/>
<path d="M14.2363 18.7201C14.2363 19.4559 13.944 20.1616 13.4237 20.6819C12.9034 21.2022 12.1977 21.4945 11.4619 21.4945C10.7261 21.4945 10.0204 21.2022 9.50011 20.6819C8.97981 20.1616 8.6875 19.4559 8.6875 18.7201C8.6875 17.5969 10.1851 15.3505 10.9819 14.2369C11.0372 14.1615 11.1095 14.1001 11.1928 14.0579C11.2762 14.0156 11.3684 13.9937 11.4619 13.9937C11.5554 13.9937 11.6476 14.0156 11.731 14.0579C11.8143 14.1001 11.8866 14.1615 11.9419 14.2369C12.7387 15.3697 14.2363 17.6161 14.2363 18.7201Z" fill="#FFF5BA"/>
</g>
</g>
<defs>
<clipPath id="clip0_3_5787">
<rect width="24" height="24" fill="white"/>
</clipPath>
<clipPath id="clip1_3_5787">
<rect width="24" height="24" fill="white"/>
</clipPath>
</defs>
</svg>
