<svg width="24" height="24" viewBox="0 0 24 24" fill="none" xmlns="http://www.w3.org/2000/svg">
<g clip-path="url(#clip0_3_5750)">
<g clip-path="url(#clip1_3_5750)">
<path d="M12 22C17.5228 22 22 17.5228 22 12C22 6.47715 17.5228 2 12 2C6.47715 2 2 6.47715 2 12C2 17.5228 6.47715 22 12 22Z" fill="#2976FF"/>
<path d="M7.67969 15.9283L18.3281 7.21631C18.3281 7.21631 19.9058 14.4475 10.8124 16.3362C10.8124 16.3362 12.5261 16.1184 13.7991 15.7356L17.2163 17.346C17.2163 17.346 11.5679 19.7271 7.67969 15.9283Z" fill="white"/>
<path d="M6.50182 14.5899C6.50182 14.5899 4.06037 11.879 4.15606 8.80664L9.87503 12.9366C9.87503 12.9366 6.67432 11.9998 6.50182 14.5899Z" fill="white"/>
<path d="M7.68038 15.9287L5.30566 17.9886L6.50184 14.5889C6.78899 15.1184 7.19182 15.5764 7.68038 15.9287Z" fill="#FED014"/>
<path d="M7.45987 14.5711C7.66154 14.5711 7.82502 14.4076 7.82502 14.206C7.82502 14.0043 7.66154 13.8408 7.45987 13.8408C7.25821 13.8408 7.09473 14.0043 7.09473 14.206C7.09473 14.4076 7.25821 14.5711 7.45987 14.5711Z" fill="white"/>
</g>
</g>
<defs>
<clipPath id="clip0_3_5750">
<rect width="24" height="24" fill="white"/>
</clipPath>
<clipPath id="clip1_3_5750">
<rect width="24" height="24" fill="white"/>
</clipPath>
</defs>
</svg>
