<svg width="17" height="18" viewBox="0 0 17 18" fill="none" xmlns="http://www.w3.org/2000/svg">
<path d="M15.9896 12.9714C15.5032 12.1344 14.7804 9.77367 14.7804 6.70312C14.7804 4.92535 14.0742 3.22038 12.8171 1.9633C11.5601 0.70622 9.85509 0 8.07731 0C6.29953 0 4.59456 0.70622 3.33748 1.9633C2.0804 3.22038 1.37418 4.92535 1.37418 6.70312C1.37418 9.77453 0.650588 12.1344 0.164182 12.9714C0.0574607 13.1542 0.000831683 13.3618 9.09125e-06 13.5734C-0.000813501 13.7851 0.0541997 13.9932 0.159497 14.1767C0.264795 14.3603 0.416651 14.5129 0.599741 14.619C0.782832 14.7251 0.990679 14.7811 1.20231 14.7812H4.85293C4.97817 15.5456 5.37103 16.2406 5.96135 16.7421C6.55167 17.2435 7.30102 17.5189 8.07559 17.5189C8.85016 17.5189 9.59951 17.2435 10.1898 16.7421C10.7802 16.2406 11.173 15.5456 11.2982 14.7812H14.9523C15.1638 14.7808 15.3714 14.7246 15.5543 14.6184C15.7371 14.5121 15.8887 14.3595 15.9938 14.176C16.0989 13.9925 16.1538 13.7845 16.1529 13.573C16.152 13.3615 16.0954 13.154 15.9887 12.9714H15.9896ZM8.07731 16.5C7.57449 16.4998 7.08643 16.3301 6.69204 16.0182C6.29764 15.7063 6.01998 15.2705 5.90395 14.7812H10.2507C10.1346 15.2705 9.85697 15.7063 9.46258 16.0182C9.06819 16.3301 8.58012 16.4998 8.07731 16.5ZM15.0993 13.6641C15.0851 13.6904 15.064 13.7123 15.0382 13.7275C15.0125 13.7426 14.9831 13.7504 14.9532 13.75H1.20231C1.17242 13.7504 1.143 13.7426 1.11724 13.7275C1.09148 13.7123 1.07037 13.6904 1.05621 13.6641C1.04113 13.6379 1.03319 13.6083 1.03319 13.5781C1.03319 13.548 1.04113 13.5183 1.05621 13.4922C1.70676 12.375 2.40543 9.77023 2.40543 6.70312C2.40543 5.19885 3.003 3.75619 4.06669 2.6925C5.13037 1.62882 6.57303 1.03125 8.07731 1.03125C9.58158 1.03125 11.0242 1.62882 12.0879 2.6925C13.1516 3.75619 13.7492 5.19885 13.7492 6.70312C13.7492 9.76938 14.4487 12.3707 15.0993 13.4922C15.1143 13.5183 15.1223 13.548 15.1223 13.5781C15.1223 13.6083 15.1143 13.6379 15.0993 13.6641Z" fill="black"/>
</svg>
