<svg width="18" height="20" viewBox="0 0 18 20" fill="none" xmlns="http://www.w3.org/2000/svg">
<path d="M9.09621 5C10.7278 4.99994 12.2959 5.60157 13.4711 6.67847C14.6462 7.75537 15.3369 9.22371 15.3981 10.775L15.4023 11V18H16.4534C16.7212 18.0003 16.9789 18.0979 17.1737 18.2728C17.3685 18.4478 17.4857 18.687 17.5014 18.9414C17.5171 19.1958 17.4301 19.4464 17.2582 19.6418C17.0862 19.8373 16.8423 19.9629 16.5763 19.993L16.4534 20H1.73907C1.47119 19.9997 1.21353 19.9021 1.01873 19.7272C0.823941 19.5522 0.706721 19.313 0.691021 19.0586C0.675322 18.8042 0.762329 18.5536 0.934266 18.3582C1.1062 18.1627 1.35009 18.0371 1.6161 18.007L1.73907 18H2.79009V11C2.79009 9.4087 3.45448 7.88258 4.63711 6.75736C5.81974 5.63214 7.42372 5 9.09621 5ZM9.09621 7C7.98122 7 6.9119 7.42143 6.12348 8.17157C5.33506 8.92172 4.89213 9.93913 4.89213 11V18H13.3003V11C13.3003 9.93913 12.8574 8.92172 12.0689 8.17157C11.2805 7.42143 10.2112 7 9.09621 7ZM9.63749 9.643C9.87605 9.77961 10.0479 10.0007 10.1153 10.2578C10.1827 10.5148 10.1401 10.7868 9.99694 11.014L9.37683 12H10.6538C11.4789 12 11.9886 12.857 11.564 13.53L9.99799 16.015C9.85443 16.2426 9.62175 16.4065 9.35112 16.4709C9.0805 16.5352 8.7941 16.4946 8.55494 16.358C8.31577 16.2214 8.14343 16 8.07582 15.7425C8.00821 15.4851 8.05088 15.2126 8.19444 14.985L8.81664 14H7.5386C7.3507 14 7.16616 13.9526 7.00382 13.8626C6.84149 13.7725 6.70719 13.6431 6.61463 13.4875C6.52207 13.3319 6.47458 13.1557 6.477 12.977C6.47942 12.7982 6.53168 12.6233 6.62842 12.47L8.19444 9.985C8.26554 9.87234 8.35928 9.77412 8.4703 9.69595C8.58132 9.61778 8.70744 9.56119 8.84146 9.52943C8.97548 9.49767 9.11477 9.49135 9.25135 9.51084C9.38794 9.53032 9.51915 9.57523 9.63749 9.643ZM2.40752 3.222L3.15059 3.929C3.33745 4.11832 3.43956 4.36939 3.43532 4.62908C3.43109 4.88876 3.32083 5.13669 3.12788 5.32041C2.93493 5.50412 2.67443 5.6092 2.4015 5.61342C2.12856 5.61763 1.86461 5.52066 1.6655 5.343L0.922427 4.636C0.822043 4.54375 0.741974 4.43341 0.686891 4.3114C0.631808 4.1894 0.602815 4.05818 0.601602 3.9254C0.600389 3.79262 0.626982 3.66094 0.679828 3.53805C0.732675 3.41515 0.810716 3.3035 0.909399 3.20961C1.00808 3.11571 1.12543 3.04146 1.2546 2.99118C1.38376 2.9409 1.52216 2.9156 1.66172 2.91675C1.80127 2.9179 1.93918 2.94549 2.06741 2.9979C2.19564 3.05031 2.31057 3.12649 2.40752 3.222ZM17.271 3.222C17.452 3.39419 17.5607 3.62329 17.5768 3.86632C17.5928 4.10934 17.5152 4.3496 17.3583 4.542L17.271 4.636L16.528 5.343C16.3388 5.52235 16.085 5.62647 15.8181 5.63423C15.5512 5.64198 15.2912 5.55278 15.0909 5.38475C14.8907 5.21672 14.7651 4.98245 14.7398 4.72953C14.7144 4.4766 14.7913 4.22399 14.9546 4.023L15.0418 3.929L15.7849 3.222C15.982 3.03453 16.2493 2.92921 16.528 2.92921C16.8067 2.92921 17.074 3.03453 17.271 3.222ZM9.09621 0C9.35364 3.23106e-05 9.60211 0.0899562 9.79448 0.252715C9.98685 0.415475 10.1098 0.639749 10.1399 0.883L10.1472 1V2C10.1469 2.25488 10.0444 2.50003 9.86046 2.68537C9.67657 2.8707 9.42523 2.98223 9.15781 2.99717C8.89038 3.01211 8.62706 2.92933 8.42163 2.76574C8.21621 2.60214 8.08419 2.3701 8.05255 2.117L8.04519 2V1C8.04519 0.734784 8.15592 0.48043 8.35303 0.292893C8.55013 0.105357 8.81746 0 9.09621 0Z" fill="black"/>
</svg>
